<svg width="770" height="770" viewBox="0 0 770 770" fill="none" xmlns="http://www.w3.org/2000/svg">
<path d="M571.254 693.136C516.914 726.051 453.171 745 385 745C186.179 745 25 583.822 25 385C25 186.176 186.179 25 385 25C583.822 25 745 186.176 745 385C745 458.933 722.206 527.659 683.983 584.831" stroke="#0251FF" stroke-width="50" stroke-miterlimit="10" stroke-linecap="round" stroke-linejoin="round"/>
<path d="M280.776 185.586C263.248 176.681 242.668 176.887 225.252 185.715L429.372 358.792L497.944 295.763L280.776 185.586ZM204.84 203.421C199.856 210.91 197 219.481 197 228.566V541.159C197 549.961 199.604 558.351 204.308 565.686L409.576 377.013L204.84 203.421ZM588.86 341.883L523.452 308.709L449.952 376.241L540.028 452.601L588.888 427.816C606.472 418.86 617 402.801 617 384.837C616.972 366.873 606.472 350.813 588.86 341.883ZM430.156 394.462L224.328 583.65C233.26 588.334 243.06 590.805 252.916 590.805C262.436 590.805 272.012 588.592 280.776 584.139L514.212 465.726L430.156 394.462Z" fill="#0251FF"/>
</svg>
