<svg width="48" height="48" viewBox="0 0 48 48" fill="none" xmlns="http://www.w3.org/2000/svg">
<path d="M24.5846 44.5541C20.5204 44.6105 17.3785 44.6171 16.6921 44.4099C16.0058 44.2026 14.3188 43.6494 13.385 44.2133C12.4512 44.7771 12.1589 45.9124 11.1938 46.4185C9.72926 47.1865 8.72842 47.9182 6.88884 47.9923C3.73673 48.1192 0.817447 46.6808 0.18238 43.672C-0.596484 39.9818 1.18818 37.566 4.22175 35.332C5.46133 34.4192 7.66771 33.0693 8.11725 31.5831C8.46795 30.4237 7.37147 29.4071 6.67857 28.5659C2.24535 23.1834 1.13357 15.4921 4.11108 9.24974C5.55353 6.22564 7.88412 2.65133 12.0349 3.65638C13.8286 4.09071 15.4609 4.97954 17.3691 4.97954C19.2027 4.97954 21.0082 4.24977 22.659 3.60626C24.9857 2.69924 27.1349 1.41062 29.5314 0.659218C31.8913 -0.0806885 34.4037 -0.0728989 36.8687 0.0878563C40.094 0.298195 44.3876 0.443905 47.2272 2.0325C48.4765 2.73138 47.9397 4.09496 47.4928 5.09983C46.2959 7.79145 43.9554 9.98792 42.1144 12.3171C40.6412 14.1808 37.9818 17.0413 38.7501 19.5544C39.3322 21.4583 40.8421 20.8533 42.5451 21.8219C43.7056 22.4819 43.859 24.7653 43.1325 25.5687C41.6882 27.1661 40.007 28.8667 40.5208 31.0819C40.8683 32.5803 41.7763 33.8583 42.3357 35.2819C43.5092 38.2683 42.1912 40.4591 39.2591 41.9078C34.7215 44.1496 29.6557 44.4837 24.5846 44.5541Z" fill="#8B7FFF"/>
</svg>
