<svg width="48" height="48" viewBox="0 0 48 48" fill="none" xmlns="http://www.w3.org/2000/svg">
<path d="M13.8372 1.12941C11.6931 2.64473 11.4634 4.02348 11.4634 4.80982C11.4634 4.80982 11.4386 6.47273 10.9937 7.36543C10.5488 8.25813 10.4099 8.59472 9.3494 8.74153C8.77147 8.63405 8.48224 8.08927 8.17494 7.7586C7.51921 7.05302 7.02628 6.0505 6.00769 5.74605C4.24079 5.21793 -0.250867 4.64601 0.0109794 7.05658C0.373663 10.3955 4.30067 12.6053 6.04328 15.4559C8.15282 18.9066 6.41796 20.6119 3.51648 23.1106C-1.06188 27.0533 -0.12151 32.2347 0.633784 37.2583C1.0819 40.2389 1.78726 43.203 4.85106 45.0768C7.78994 46.8742 11.3365 48.0812 15.0117 47.9957C18.1255 47.9233 20.5241 46.5621 22.7166 44.8237C24.1353 43.6989 25.5061 42.2912 27.5567 42.0388C32.3556 41.4482 35.7787 45.6677 40.2797 45.3002C48.6278 44.6186 49.53 34.7008 46.1875 29.8866C43.7854 26.427 34.7927 24.6472 39.1409 19.8342C41.3264 17.4152 44.1317 15.2007 45.2621 12.2391C46.0793 10.0983 45.695 6.9995 42.8421 6.07368C37.3771 4.3002 31.1667 7.72942 25.4748 6.74384C22.5447 6.23649 22.2678 3.70237 21.2753 1.81446C19.9915 -0.627342 15.9215 -0.343595 13.8372 1.12941Z" fill="#00B99A"/>

</svg>
