<svg width="48" height="48" viewBox="0 0 48 48" fill="none" xmlns="http://www.w3.org/2000/svg">
<path d="M31.3664 0.0343604C25.8882 0.396643 23.6493 2.24062 18.8843 4.56763L16.4079 6.28318C16.2125 6.65542 15.8223 6.89033 15.6308 7.30067C15.2693 8.07536 15.0709 8.82591 14.8969 9.65425L14.8882 9.69582C14.591 11.1115 14.1714 13.1106 12.6089 13.7653C11.6321 14.1746 10.9238 13.9323 9.95393 13.6831C8.86601 13.4035 7.61398 13.4332 6.5003 13.5392C4.96494 13.6854 3.6199 14.1003 2.32357 14.8959C0.5162 16.005 -0.141133 17.1467 0.0247436 19.2228C0.43152 24.3139 6.56847 24.17 10.2993 26.1191C11.2811 26.632 14.1062 27.9517 14.2386 29.2126C14.3217 30.0043 13.4095 30.7833 12.9003 31.2682C10.7991 33.2691 7.95114 34.9011 10.0295 37.9281C11.2141 39.6534 12.8846 41.2404 14.4221 42.6867C15.5 43.7006 16.4874 44.1932 18.0052 44.2078C19.6315 44.2234 21.306 44.0847 22.9266 44.2283C24.4826 44.3661 25.873 45.4206 27.0555 46.3174L27.0926 46.3455C28.9869 47.782 30.6115 48.5062 33.0069 47.5994C36.2881 46.3573 39.3618 43.8028 41.4251 41.1245C46.0974 35.0593 51.5007 24.6925 44.9975 18.0408C42.4474 15.4325 38.7054 13.6971 36.5469 10.7642C35.8381 9.80121 35.6768 8.54138 35.8777 7.39317C36.1877 5.622 37.7818 4.58994 37.5722 2.5935C37.2995 -0.00337637 33.2597 -0.0908422 31.3664 0.0343604Z" fill="#F9C558"/>
</svg>
