<svg width="1024" height="1024" viewBox="0 0 1024 1024" fill="none" xmlns="http://www.w3.org/2000/svg">
<path d="M698.254 820.136C643.914 853.051 580.171 872 512 872C313.179 872 152 710.822 152 512C152 313.176 313.179 152 512 152C710.822 152 872 313.176 872 512C872 585.933 849.206 654.659 810.983 711.831" stroke="#0251FF" stroke-width="50" stroke-miterlimit="10" stroke-linecap="round" stroke-linejoin="round"/>
<path d="M407.776 312.586C390.248 303.681 369.668 303.887 352.252 312.715L556.372 485.792L624.944 422.763L407.776 312.586ZM331.84 330.421C326.856 337.91 324 346.481 324 355.566V668.159C324 676.961 326.604 685.351 331.308 692.686L536.576 504.013L331.84 330.421ZM715.86 468.883L650.452 435.709L576.952 503.241L667.028 579.601L715.888 554.816C733.472 545.86 744 529.801 744 511.837C743.972 493.873 733.472 477.813 715.86 468.883ZM557.156 521.462L351.328 710.65C360.26 715.334 370.06 717.805 379.916 717.805C389.436 717.805 399.012 715.592 407.776 711.139L641.212 592.726L557.156 521.462Z" fill="#0251FF"/>
</svg>
